<svg width="36" height="37" viewBox="0 0 36 37" fill="none" xmlns="http://www.w3.org/2000/svg">
<path d="M21 28.5V24.5C21.1391 23.2473 20.7799 21.9901 20 21C23 21 26 19 26 15.5C26.08 14.25 25.73 13.02 25 12C25.28 10.85 25.28 9.65 25 8.5C25 8.5 24 8.5 22 10C19.36 9.5 16.64 9.5 14 10C12 8.5 11 8.5 11 8.5C10.7 9.65 10.7 10.85 11 12C10.2719 13.0159 9.91847 14.2528 10 15.5C10 19 13 21 16 21C15.61 21.49 15.32 22.05 15.15 22.65C14.98 23.25 14.93 23.88 15 24.5V28.5" stroke="#D1D5DB" stroke-width="2" stroke-linecap="round" stroke-linejoin="round"/>
<path d="M15 24.5C10.49 26.5 10 22.5 8 22.5" stroke="#D1D5DB" stroke-width="2" stroke-linecap="round" stroke-linejoin="round"/>
</svg>
