<svg width="32" height="27" viewBox="0 0 32 27" fill="none" xmlns="http://www.w3.org/2000/svg">
<path d="M3.80952 0C1.71465 0 0 1.44674 0 3.21429V23.7857C0 25.5533 1.71465 27 3.80952 27H28.1905C30.2853 27 32 25.5533 32 23.7857V3.21429C32 1.44674 30.2853 0 28.1905 0H3.80952ZM3.80952 1.28571H28.1905C29.4617 1.28571 30.4762 2.14169 30.4762 3.21429V23.7857C30.4762 24.8583 29.4617 25.7143 28.1905 25.7143H3.80952C2.5383 25.7143 1.52381 24.8583 1.52381 23.7857V3.21429C1.52381 2.14169 2.5383 1.28571 3.80952 1.28571ZM7.61905 4.50753C6.78459 4.50753 6.03369 4.71798 5.47768 5.11272C4.92167 5.50747 4.58036 6.09719 4.58036 6.72865C4.58036 7.92898 5.81431 8.86475 7.38393 8.95731L7.3869 8.95857C7.4617 8.98007 7.54004 8.99152 7.61905 8.99247C9.35086 8.99247 10.6577 7.96891 10.6577 6.72865C10.6576 6.71735 10.6571 6.70604 10.6562 6.69475C10.5787 5.47318 9.28796 4.50753 7.61905 4.50753ZM7.61905 5.77818C8.6798 5.77818 9.09864 6.17788 9.14435 6.74498C9.13509 7.29542 8.7315 7.72182 7.61905 7.72182C6.5635 7.72182 6.08631 7.26572 6.08631 6.72865C6.08631 6.46012 6.20244 6.25776 6.44643 6.08454C6.69042 5.91132 7.08207 5.77818 7.61905 5.77818ZM5.33333 9.64286C5.13127 9.64287 4.93749 9.71061 4.79461 9.83116C4.65173 9.95172 4.57145 10.1152 4.57143 10.2857V22.5C4.57145 22.6705 4.65173 22.834 4.79461 22.9545C4.93749 23.0751 5.13127 23.1428 5.33333 23.1429H9.90476C10.1068 23.1428 10.3006 23.0751 10.4435 22.9545C10.5864 22.834 10.6666 22.6705 10.6667 22.5V18.7295V10.2857C10.6666 10.1152 10.5864 9.95172 10.4435 9.83116C10.3006 9.71061 10.1068 9.64287 9.90476 9.64286H5.33333ZM12.1905 9.64286C11.9884 9.64287 11.7946 9.71061 11.6518 9.83116C11.5089 9.95172 11.4286 10.1152 11.4286 10.2857V22.5C11.4286 22.6705 11.5089 22.834 11.6518 22.9545C11.7946 23.0751 11.9884 23.1428 12.1905 23.1429H16.7619C16.964 23.1428 17.1577 23.0751 17.3006 22.9545C17.4435 22.834 17.5238 22.6705 17.5238 22.5V16.0714C17.5238 15.5381 17.6963 15.0075 18 14.6602C18.3037 14.3128 18.6868 14.1043 19.4152 14.1152C20.1662 14.1261 20.5638 14.3432 20.8646 14.684C21.1654 15.0248 21.3333 15.5357 21.3333 16.0714V22.5C21.3334 22.6705 21.4136 22.834 21.5565 22.9545C21.6994 23.0751 21.8932 23.1428 22.0952 23.1429H26.6667C26.8687 23.1428 27.0625 23.0751 27.2054 22.9545C27.3483 22.834 27.4286 22.6705 27.4286 22.5V15.5968C27.4286 13.693 26.7602 12.1849 25.6146 11.1646C24.4689 10.1443 22.8756 9.64286 21.1905 9.64286C19.5889 9.64286 18.3702 10.096 17.5238 10.5582V10.2857C17.5238 10.1152 17.4435 9.95172 17.3006 9.83116C17.1577 9.71061 16.964 9.64287 16.7619 9.64286H12.1905ZM6.09524 10.9286H9.14286V18.7295V21.8571H6.09524V10.9286ZM12.9524 10.9286H16V11.9318C16 12.0666 16.0503 12.198 16.1437 12.3073C16.237 12.4167 16.3688 12.4986 16.5203 12.5413C16.6718 12.5841 16.8354 12.5856 16.988 12.5456C17.1406 12.5056 17.2744 12.4262 17.3705 12.3185C17.3705 12.3185 18.567 10.9286 21.1905 10.9286C22.5263 10.9286 23.6719 11.3031 24.5089 12.0485C25.346 12.794 25.9048 13.9425 25.9048 15.5968V21.8571H22.8571V16.0714C22.8571 15.3214 22.6442 14.546 22.0878 13.9156C21.5314 13.2852 20.5957 12.8463 19.442 12.8295C18.2823 12.8121 17.3314 13.2602 16.7738 13.898C16.2162 14.5358 16 15.3191 16 16.0714V21.8571H12.9524V10.9286Z" fill="#D1D5DB"/>
</svg>
