<svg width="30" height="29" viewBox="0 0 30 29" fill="none" xmlns="http://www.w3.org/2000/svg">
<path d="M28.3333 21.06V25.06C28.3348 25.4313 28.2588 25.7989 28.11 26.1391C27.9612 26.4793 27.7431 26.7848 27.4694 27.0358C27.1958 27.2868 26.8728 27.4779 26.521 27.5969C26.1692 27.7159 25.7965 27.7601 25.4267 27.7266C21.3238 27.2808 17.3827 25.8788 13.92 23.6333C10.6984 21.5862 7.96711 18.8549 5.92 15.6333C3.66663 12.1549 2.26432 8.19463 1.82666 4.0733C1.79334 3.70459 1.83716 3.33298 1.95533 2.98213C2.0735 2.63128 2.26343 2.30889 2.51302 2.03546C2.76261 1.76204 3.0664 1.54358 3.40505 1.394C3.7437 1.24441 4.10978 1.16698 4.48 1.16663H8.48C9.12707 1.16026 9.75439 1.3894 10.245 1.81134C10.7356 2.23328 11.0561 2.81923 11.1467 3.45997C11.3155 4.74006 11.6286 5.99694 12.08 7.20663C12.2594 7.68387 12.2982 8.20252 12.1919 8.70114C12.0855 9.19976 11.8385 9.65745 11.48 10.02L9.78666 11.7133C11.6847 15.0514 14.4486 17.8152 17.7867 19.7133L19.48 18.02C19.8425 17.6615 20.3002 17.4144 20.7988 17.3081C21.2974 17.2018 21.8161 17.2406 22.2933 17.42C23.503 17.8714 24.7599 18.1845 26.04 18.3533C26.6877 18.4447 27.2792 18.7709 27.702 19.27C28.1249 19.769 28.3496 20.4061 28.3333 21.06Z" stroke="#D1D5DB" stroke-width="2" stroke-linecap="round" stroke-linejoin="round"/>
</svg>
